<?xml version="1.0" encoding="UTF-8" standalone="no"?>
<!-- Created with Inkscape (http://www.inkscape.org/) -->

<svg
   width="197.50723mm"
   height="63.608143mm"
   viewBox="0 0 197.50723 63.608143"
   version="1.1"
   id="svg1"
   xml:space="preserve"
   inkscape:version="1.4 (e7c3feb100, 2024-10-09)"
   sodipodi:docname="logo.svg"
   inkscape:export-filename="logo.png"
   inkscape:export-xdpi="96"
   inkscape:export-ydpi="96"
   xmlns:inkscape="http://www.inkscape.org/namespaces/inkscape"
   xmlns:sodipodi="http://sodipodi.sourceforge.net/DTD/sodipodi-0.dtd"
   xmlns="http://www.w3.org/2000/svg"
   xmlns:svg="http://www.w3.org/2000/svg"><sodipodi:namedview
     id="namedview1"
     pagecolor="#ffffff"
     bordercolor="#000000"
     borderopacity="0.25"
     inkscape:showpageshadow="2"
     inkscape:pageopacity="0.0"
     inkscape:pagecheckerboard="0"
     inkscape:deskcolor="#d1d1d1"
     inkscape:document-units="mm"
     inkscape:zoom="1.0343421"
     inkscape:cx="421.04058"
     inkscape:cy="71.059662"
     inkscape:window-width="1920"
     inkscape:window-height="1030"
     inkscape:window-x="0"
     inkscape:window-y="0"
     inkscape:window-maximized="1"
     inkscape:current-layer="layer1" /><defs
     id="defs1" /><g
     inkscape:label="Layer 1"
     inkscape:groupmode="layer"
     id="layer1"
     transform="translate(-5.8521857,-46.676499)"><path
       style="fill:#fa9112;stroke:none;stroke-width:0.33601"
       d="m 32.777174,60.011856 c 0.956978,-0.283604 1.738085,-1.159139 2.578168,-1.683382 1.659657,-1.035693 3.379266,-1.918433 5.156336,-2.734296 5.843018,-2.682567 12.378289,-4.555268 18.758388,-5.361579 -0.229409,-0.780002 -1.533814,-1.365837 -2.222554,-1.711094 -2.212225,-1.108963 -4.614366,-1.844034 -7.11219,-1.845 -2.503933,-9.75e-4 -4.916654,0.119907 -7.289988,1.015725 -4.878823,1.841522 -9.162005,7.079917 -9.86816,12.319626 m 30.759871,-3.597251 c -1.577909,0.270098 -3.179199,1.043935 -4.711483,1.513808 -3.23086,0.990748 -6.482774,1.903272 -9.690359,2.972466 -1.669471,0.556492 -3.931057,1.256885 -4.568728,3.111581 -0.627243,1.824367 1.009722,3.432202 2.523975,4.101787 3.822345,1.690201 8.169373,2.438732 12.179616,3.58182 1.104061,0.314703 2.199621,0.653063 3.289387,1.013937 0.468853,0.15526 1.184407,0.493275 1.684282,0.415701 0.357623,-0.05549 0.441306,-0.463831 0.525722,-0.756423 0.219558,-0.76097 0.337823,-1.536258 0.492605,-2.311462 0.670684,-3.359212 0.561622,-6.885921 -0.175612,-10.22377 -0.201023,-0.910135 -0.468469,-1.790357 -0.785718,-2.667069 -0.145951,-0.403338 -0.238901,-0.842207 -0.763687,-0.752376 M 33.844002,74.591839 c 0.05295,1.158791 0.752975,2.466865 1.150999,3.556093 0.939584,2.571261 1.918481,5.131394 3.002442,7.645606 0.345943,0.802404 0.710949,1.59688 1.053795,2.400356 0.138414,0.32439 0.237086,0.840909 0.590417,1.000846 1.078952,0.488386 3.00288,-0.09586 4.159409,-0.111475 1.861078,-0.02508 3.759499,-0.333253 5.600842,-0.598586 2.112791,-0.304441 4.33203,-0.587266 6.31207,-1.435189 1.452737,-0.622125 3.153661,-1.632694 3.302896,-3.389617 0.05941,-0.698815 -0.477632,-1.356076 -0.994936,-1.76638 -1.198723,-0.950767 -2.90697,-1.278548 -4.352712,-1.688321 -4.163273,-1.180028 -8.383726,-2.174783 -12.53523,-3.393928 -2.359861,-0.693004 -4.865071,-1.861274 -7.289992,-2.219405 m 9.423648,22.225582 c 0.280765,1.182045 1.087227,2.316203 1.661705,3.378299 0.844856,1.56195 1.57081,3.20459 2.512245,4.71182 0.429228,0.68718 0.873173,2.15902 1.693603,2.40036 l 1.572807,-2.75597 3.161993,-6.045354 1.212326,-2.222552 0.2995,-0.860429 -0.645783,-0.09129 -2.133655,0.524986 -6.045355,0.774398 z"
       id="path3" /><path
       style="fill:#000000"
       id="path2"
       d="" /><text
       xml:space="preserve"
       style="font-style:normal;font-variant:normal;font-weight:normal;font-stretch:normal;font-size:57.3045px;font-family:'Adwaita Mono';-inkscape-font-specification:'Adwaita Mono';text-align:start;writing-mode:lr-tb;direction:ltr;text-anchor:start;fill:#000000;fill-opacity:1;stroke:none;stroke-width:0.537231;stroke-opacity:1"
       x="1.3798322e-08"
       y="91.771408"
       id="text4"
       transform="scale(0.93692078,1.0673261)"><tspan
         sodipodi:role="line"
         id="tspan4"
         x="1.3798322e-08"
         y="91.771408"
         style="font-style:normal;font-variant:normal;font-weight:normal;font-stretch:normal;font-size:57.3045px;font-family:'Adwaita Mono';-inkscape-font-specification:'Adwaita Mono';fill:#000000;stroke-width:0.537231">{</tspan></text><text
       xml:space="preserve"
       style="font-style:normal;font-variant:normal;font-weight:normal;font-stretch:normal;font-size:58.7018px;font-family:'Adwaita Mono';-inkscape-font-specification:'Adwaita Mono';text-align:start;writing-mode:lr-tb;direction:ltr;text-anchor:start;fill:#000000;fill-opacity:1;stroke:none;stroke-width:0.55033;stroke-opacity:1"
       x="3.6393393e-15"
       y="91.887131"
       id="text4-7"
       transform="scale(0.91461964,1.0933507)"><tspan
         sodipodi:role="line"
         id="tspan4-0"
         x="3.6393393e-15"
         y="91.887131"
         style="font-style:normal;font-variant:normal;font-weight:normal;font-stretch:normal;font-size:58.7018px;font-family:'Adwaita Mono';-inkscape-font-specification:'Adwaita Mono';fill:#000000;stroke-width:0.55033">{</tspan></text><text
       xml:space="preserve"
       style="font-style:normal;font-variant:normal;font-weight:normal;font-stretch:normal;font-size:58.8523px;font-family:'Adwaita Mono';-inkscape-font-specification:'Adwaita Mono';text-align:start;writing-mode:lr-tb;direction:ltr;text-anchor:start;fill:#000000;fill-opacity:1;stroke:none;stroke-width:0.551742;stroke-opacity:1"
       x="194.01701"
       y="91.60601"
       id="text4-7-8"
       transform="scale(0.91227951,1.0961553)"><tspan
         sodipodi:role="line"
         id="tspan4-0-7"
         x="194.01701"
         y="91.60601"
         style="font-style:normal;font-variant:normal;font-weight:normal;font-stretch:normal;font-size:58.8523px;font-family:'Adwaita Mono';-inkscape-font-specification:'Adwaita Mono';fill:#000000;stroke-width:0.551742">}</tspan></text><text
       xml:space="preserve"
       style="font-style:normal;font-variant:normal;font-weight:normal;font-stretch:normal;font-size:39.8032px;font-family:'Adwaita Mono';-inkscape-font-specification:'Adwaita Mono';text-align:start;writing-mode:lr-tb;direction:ltr;text-anchor:start;fill:#000000;fill-opacity:1;stroke:none;stroke-width:0.373156;stroke-opacity:1"
       x="68.531395"
       y="85.40667"
       id="text4-7-0"
       transform="scale(0.93692078,1.0673261)"><tspan
         sodipodi:role="line"
         id="tspan4-0-6"
         x="68.531395"
         y="85.40667"
         style="font-style:normal;font-variant:normal;font-weight:normal;font-stretch:normal;font-size:39.8032px;font-family:'Adwaita Mono';-inkscape-font-specification:'Adwaita Mono';fill:#000000;stroke-width:0.373156" /></text><text
       xml:space="preserve"
       style="font-style:normal;font-variant:normal;font-weight:normal;font-stretch:normal;font-size:33.2921px;font-family:Biscuitos;-inkscape-font-specification:Biscuitos;text-align:start;writing-mode:lr-tb;direction:ltr;text-anchor:start;fill:#000000;fill-opacity:1;stroke:none;stroke-width:0.312112;stroke-opacity:1"
       x="85.262405"
       y="74.743568"
       id="text5"><tspan
         sodipodi:role="line"
         x="85.262405"
         y="74.743568"
         style="fill:#ff920f;fill-opacity:1;stroke-width:0.312112"
         id="tspan6">Sbf</tspan></text><text
       xml:space="preserve"
       style="font-style:normal;font-variant:normal;font-weight:normal;font-stretch:normal;font-size:33.2921px;font-family:Biscuitos;-inkscape-font-specification:Biscuitos;text-align:start;writing-mode:lr-tb;direction:ltr;text-anchor:start;fill:#ff920f;fill-opacity:1;stroke:none;stroke-width:0.312112;stroke-opacity:1"
       x="84.536011"
       y="67.705261"
       id="text7"><tspan
         sodipodi:role="line"
         id="tspan7"
         style="stroke-width:0.312112"
         x="84.536011"
         y="67.705261" /><tspan
         sodipodi:role="line"
         style="stroke-width:0.312112"
         x="84.536011"
         y="109.32039"
         id="tspan8">Parser</tspan></text><text
       xml:space="preserve"
       style="font-size:28.2223px;font-family:Biscuitos;-inkscape-font-specification:Biscuitos;text-align:start;writing-mode:lr-tb;direction:ltr;text-anchor:start;fill:#000000;stroke-width:0.264583"
       x="72.234032"
       y="92.263344"
       id="text1"><tspan
         sodipodi:role="line"
         id="tspan1"
         style="fill:#000000;stroke-width:0.264583"
         x="72.234032"
         y="92.263344">.</tspan></text><text
       xml:space="preserve"
       style="font-size:28.2223px;font-family:Biscuitos;-inkscape-font-specification:Biscuitos;text-align:start;writing-mode:lr-tb;direction:ltr;text-anchor:start;fill:#000000;stroke-width:0.264583"
       x="72.234032"
       y="76.592506"
       id="text1-5"><tspan
         sodipodi:role="line"
         id="tspan1-3"
         style="fill:#000000;stroke-width:0.264583"
         x="72.234032"
         y="76.592506">.</tspan></text></g></svg>
