<?xml version="1.0" encoding="UTF-8" standalone="no"?>
<!-- Created with Inkscape (http://www.inkscape.org/) -->

<svg
   width="197.37776mm"
   height="64.360382mm"
   viewBox="0 0 197.37776 64.360382"
   version="1.1"
   id="svg1"
   xml:space="preserve"
   inkscape:version="1.4.2 (ebf0e940d0, 2025-05-08)"
   sodipodi:docname="sbf_parser_logo.svg"
   inkscape:export-filename="logo.png"
   inkscape:export-xdpi="96"
   inkscape:export-ydpi="96"
   xmlns:inkscape="http://www.inkscape.org/namespaces/inkscape"
   xmlns:sodipodi="http://sodipodi.sourceforge.net/DTD/sodipodi-0.dtd"
   xmlns="http://www.w3.org/2000/svg"
   xmlns:svg="http://www.w3.org/2000/svg"><sodipodi:namedview
     id="namedview1"
     pagecolor="#ffffff"
     bordercolor="#000000"
     borderopacity="0.25"
     inkscape:showpageshadow="2"
     inkscape:pageopacity="0.0"
     inkscape:pagecheckerboard="0"
     inkscape:deskcolor="#d1d1d1"
     inkscape:document-units="mm"
     inkscape:zoom="1.4627806"
     inkscape:cx="446.41007"
     inkscape:cy="178.08549"
     inkscape:window-width="1969"
     inkscape:window-height="1055"
     inkscape:window-x="0"
     inkscape:window-y="0"
     inkscape:window-maximized="1"
     inkscape:current-layer="layer1" /><defs
     id="defs1" /><g
     inkscape:label="Layer 1"
     inkscape:groupmode="layer"
     id="layer1"
     transform="translate(-6.1156702,-46.424811)"><path
       style="fill:#fa9112;stroke:none;stroke-width:0.34416"
       d="m 32.777174,60.666565 c 0.956978,-0.297528 1.738085,-1.216048 2.578168,-1.766029 1.659657,-1.086541 3.379266,-2.01262 5.156336,-2.868538 5.843018,-2.81427 12.378289,-4.778912 18.758388,-5.62481 -0.229409,-0.818297 -1.533814,-1.432893 -2.222554,-1.795101 -2.212225,-1.163408 -4.614366,-1.934568 -7.11219,-1.935582 -2.503933,-10e-4 -4.916654,0.125794 -7.289988,1.065593 -4.878823,1.931933 -9.162005,7.427511 -9.86816,12.924467 m 30.759871,-3.773861 c -1.577909,0.283359 -3.179199,1.095188 -4.711483,1.58813 -3.23086,1.039389 -6.482774,1.996714 -9.690359,3.118401 -1.669471,0.583813 -3.931057,1.318593 -4.568728,3.264346 -0.627243,1.913936 1.009722,3.600709 2.523975,4.303167 3.822345,1.773183 8.169373,2.558464 12.179616,3.757672 1.104061,0.330154 2.199621,0.685126 3.289387,1.063717 0.468853,0.162883 1.184407,0.517493 1.684282,0.436111 0.357623,-0.05822 0.441306,-0.486604 0.525722,-0.793561 0.219558,-0.79833 0.337823,-1.611681 0.492605,-2.424944 0.670684,-3.524135 0.561622,-7.223991 -0.175612,-10.725714 -0.201023,-0.954818 -0.468469,-1.878256 -0.785718,-2.79801 -0.145951,-0.423141 -0.238901,-0.883556 -0.763687,-0.789315 M 33.844002,75.962362 c 0.05295,1.215683 0.752975,2.587978 1.150999,3.730682 0.939584,2.697499 1.918481,5.383324 3.002442,8.020973 0.345943,0.841798 0.710949,1.67528 1.053795,2.518203 0.138414,0.340316 0.237086,0.882194 0.590417,1.049983 1.078952,0.512364 3.00288,-0.100566 4.159409,-0.116948 1.861078,-0.02631 3.759499,-0.349614 5.600842,-0.627974 2.112791,-0.319387 4.33203,-0.616098 6.31207,-1.50565 1.452737,-0.652669 3.153661,-1.712853 3.302896,-3.556033 0.05941,-0.733124 -0.477632,-1.422654 -0.994936,-1.853102 -1.198723,-0.997445 -2.90697,-1.341319 -4.352712,-1.77121 -4.163273,-1.237962 -8.383726,-2.281556 -12.53523,-3.560555 -2.359861,-0.727028 -4.865071,-1.952655 -7.289992,-2.328369 m 9.423648,23.316763 c 0.280765,1.240075 1.087227,2.429915 1.661705,3.544155 0.844856,1.63864 1.57081,3.36193 2.512245,4.94315 0.429228,0.72092 0.873173,2.26502 1.693603,2.51821 l 1.572807,-2.89127 3.161993,-6.34216 1.212326,-2.331669 0.2995,-0.902673 -0.645783,-0.09577 -2.133655,0.550761 -6.045355,0.812418 z"
       id="path3" /><path
       style="fill:#000000"
       id="path2"
       d="" /><text
       xml:space="preserve"
       style="font-style:normal;font-variant:normal;font-weight:normal;font-stretch:normal;font-size:62.5813px;font-family:'Adwaita Mono';-inkscape-font-specification:'Adwaita Mono';text-align:start;writing-mode:lr-tb;direction:ltr;text-anchor:start;fill:#000000;fill-opacity:1;stroke:none;stroke-width:0.586701;stroke-opacity:1"
       x="5.3762121"
       y="84.727684"
       id="text4"
       transform="scale(0.85792055,1.1656091)"><tspan
         sodipodi:role="line"
         id="tspan4"
         x="5.3762121"
         y="84.727684"
         style="font-style:normal;font-variant:normal;font-weight:normal;font-stretch:normal;font-size:62.5813px;font-family:'Adwaita Mono';-inkscape-font-specification:'Adwaita Mono';fill:#000000;stroke-width:0.586701">{</tspan></text><text
       xml:space="preserve"
       style="font-style:normal;font-variant:normal;font-weight:normal;font-stretch:normal;font-size:62.8284px;font-family:'Adwaita Mono';-inkscape-font-specification:'Adwaita Mono';text-align:start;writing-mode:lr-tb;direction:ltr;text-anchor:start;fill:#000000;fill-opacity:1;stroke:none;stroke-width:0.589018;stroke-opacity:1"
       x="216.01483"
       y="84.531532"
       id="text4-7-8"
       transform="scale(0.85454587,1.1702122)"><tspan
         sodipodi:role="line"
         id="tspan4-0-7"
         x="216.01483"
         y="84.531532"
         style="font-style:normal;font-variant:normal;font-weight:normal;font-stretch:normal;font-size:62.8284px;font-family:'Adwaita Mono';-inkscape-font-specification:'Adwaita Mono';fill:#000000;stroke-width:0.589018">}</tspan></text><text
       xml:space="preserve"
       style="font-style:normal;font-variant:normal;font-weight:normal;font-stretch:normal;font-size:39.8032px;font-family:'Adwaita Mono';-inkscape-font-specification:'Adwaita Mono';text-align:start;writing-mode:lr-tb;direction:ltr;text-anchor:start;fill:#000000;fill-opacity:1;stroke:none;stroke-width:0.373156;stroke-opacity:1"
       x="68.531395"
       y="85.40667"
       id="text4-7-0"
       transform="scale(0.93692078,1.0673261)"><tspan
         sodipodi:role="line"
         id="tspan4-0-6"
         x="68.531395"
         y="85.40667"
         style="font-style:normal;font-variant:normal;font-weight:normal;font-stretch:normal;font-size:39.8032px;font-family:'Adwaita Mono';-inkscape-font-specification:'Adwaita Mono';fill:#000000;stroke-width:0.373156" /></text><text
       xml:space="preserve"
       style="font-style:normal;font-variant:normal;font-weight:normal;font-stretch:normal;font-size:33.2921px;font-family:Biscuitos;-inkscape-font-specification:Biscuitos;text-align:start;writing-mode:lr-tb;direction:ltr;text-anchor:start;fill:#000000;fill-opacity:1;stroke:none;stroke-width:0.312112;stroke-opacity:1"
       x="85.262405"
       y="74.743568"
       id="text5"><tspan
         sodipodi:role="line"
         x="85.262405"
         y="74.743568"
         style="fill:#ff920f;fill-opacity:1;stroke-width:0.312112"
         id="tspan6">Sbf</tspan></text><text
       xml:space="preserve"
       style="font-style:normal;font-variant:normal;font-weight:normal;font-stretch:normal;font-size:33.2921px;font-family:Biscuitos;-inkscape-font-specification:Biscuitos;text-align:start;writing-mode:lr-tb;direction:ltr;text-anchor:start;fill:#ff920f;fill-opacity:1;stroke:none;stroke-width:0.312112;stroke-opacity:1"
       x="84.536011"
       y="67.705261"
       id="text7"><tspan
         sodipodi:role="line"
         id="tspan7"
         style="stroke-width:0.312112"
         x="84.536011"
         y="67.705261" /><tspan
         sodipodi:role="line"
         style="stroke-width:0.312112"
         x="84.536011"
         y="109.32039"
         id="tspan8">Parser</tspan></text><text
       xml:space="preserve"
       style="font-size:28.2223px;font-family:Biscuitos;-inkscape-font-specification:Biscuitos;text-align:start;writing-mode:lr-tb;direction:ltr;text-anchor:start;fill:#000000;stroke-width:0.264583"
       x="72.234032"
       y="92.263344"
       id="text1"><tspan
         sodipodi:role="line"
         id="tspan1"
         style="fill:#000000;stroke-width:0.264583"
         x="72.234032"
         y="92.263344">.</tspan></text><text
       xml:space="preserve"
       style="font-size:28.2223px;font-family:Biscuitos;-inkscape-font-specification:Biscuitos;text-align:start;writing-mode:lr-tb;direction:ltr;text-anchor:start;fill:#000000;stroke-width:0.264583"
       x="72.234032"
       y="76.592506"
       id="text1-5"><tspan
         sodipodi:role="line"
         id="tspan1-3"
         style="fill:#000000;stroke-width:0.264583"
         x="72.234032"
         y="76.592506">.</tspan></text></g></svg>
